<svg width="22" height="18" viewBox="0 0 22 18" fill="none" xmlns="http://www.w3.org/2000/svg">
<path d="M21.2591 2.63534C20.5044 2.97022 19.6938 3.19661 18.8416 3.29837C19.7114 2.77752 20.3777 1.95215 20.6924 0.969828C19.8661 1.46057 18.9619 1.80605 18.0189 1.99127C17.2515 1.17329 16.1572 0.662598 14.9465 0.662598C12.6227 0.662598 10.738 2.54646 10.738 4.87163C10.738 5.20108 10.7751 5.52249 10.8465 5.83108C7.34826 5.65527 4.24687 3.9796 2.17094 1.43342C1.80846 2.05527 1.60097 2.77828 1.60097 3.5497C1.60097 5.00979 2.34414 6.29804 3.47338 7.05267C2.80489 7.03196 2.15107 6.85152 1.56658 6.52644V6.57963C1.56658 8.61914 3.01723 10.3197 4.94288 10.7065C4.58914 10.8034 4.21791 10.8541 3.83386 10.8541C3.56232 10.8541 3.29887 10.8284 3.04152 10.78C3.57715 12.4516 5.13162 13.6684 6.97295 13.7028C5.53241 14.832 3.71726 15.5052 1.74582 15.5052C1.40626 15.5052 1.07066 15.4849 0.741211 15.4452C2.60422 16.6398 4.81624 17.3372 7.19331 17.3372C14.935 17.3372 19.169 10.9235 19.169 5.36152C19.169 5.17892 19.165 4.99768 19.1562 4.81709C19.9811 4.22042 20.6932 3.48164 21.2591 2.63534Z" fill="white"/>
</svg>
