<svg width="12" height="12" viewBox="0 0 12 12" fill="none" xmlns="http://www.w3.org/2000/svg">
<path d="M5.80001 5.1999V7.1199H8.97601C8.84801 7.9439 8.01601 9.5359 5.80001 9.5359C3.88801 9.5359 2.32801 7.9519 2.32801 5.9999C2.32801 4.0479 3.88801 2.4639 5.80001 2.4639C6.88801 2.4639 7.61601 2.9279 8.03201 3.3279L9.55201 1.8639C8.57601 0.951902 7.31201 0.399902 5.80001 0.399902C2.70401 0.399902 0.200012 2.9039 0.200012 5.9999C0.200012 9.0959 2.70401 11.5999 5.80001 11.5999C9.03201 11.5999 11.176 9.3279 11.176 6.1279C11.176 5.7599 11.136 5.4799 11.088 5.1999H5.80001Z" fill="white"/>
</svg>
