<svg width="24" height="24" viewBox="0 0 24 24" fill="none" xmlns="http://www.w3.org/2000/svg">
<path d="M8.07137 12.0683C8.07137 9.87982 9.84499 8.10526 12.0334 8.10526C14.2219 8.10526 15.9965 9.87982 15.9965 12.0683C15.9965 14.2567 14.2219 16.0313 12.0334 16.0313C9.84499 16.0313 8.07137 14.2567 8.07137 12.0683ZM5.92904 12.0683C5.92904 15.4397 8.66197 18.1727 12.0334 18.1727C15.4049 18.1727 18.1379 15.4397 18.1379 12.0683C18.1379 8.69681 15.4049 5.96388 12.0334 5.96388C8.66197 5.96388 5.92913 8.69662 5.92913 12.0683H5.92904ZM16.953 5.72184C16.9529 6.00399 17.0365 6.27983 17.1931 6.51449C17.3498 6.74915 17.5725 6.93209 17.8332 7.04017C18.0938 7.14825 18.3806 7.17661 18.6574 7.12168C18.9341 7.06674 19.1884 6.93098 19.3879 6.73155C19.5875 6.53212 19.7235 6.27798 19.7787 6.00128C19.8338 5.72457 19.8057 5.43772 19.6978 5.17701C19.5899 4.91629 19.4072 4.69342 19.1726 4.53657C18.9381 4.37972 18.6623 4.29595 18.3802 4.29584H18.3796C18.0014 4.29601 17.6387 4.44629 17.3713 4.71366C17.1038 4.98103 16.9534 5.34364 16.953 5.72184ZM7.23065 21.745C6.0716 21.6922 5.44163 21.4991 5.02297 21.336C4.46794 21.12 4.07192 20.8626 3.65555 20.4468C3.23918 20.031 2.98145 19.6354 2.76632 19.0803C2.60312 18.6619 2.41006 18.0317 2.35737 16.8727C2.29974 15.6196 2.28823 15.2432 2.28823 12.0685C2.28823 8.89377 2.30069 8.51839 2.35737 7.26424C2.41015 6.1052 2.60464 5.47627 2.76632 5.05658C2.9824 4.50155 3.23976 4.10553 3.65555 3.68916C4.07135 3.27279 4.46699 3.01506 5.02297 2.79993C5.44144 2.63673 6.0716 2.44367 7.23065 2.39098C8.48375 2.33335 8.86017 2.32184 12.0334 2.32184C15.2067 2.32184 15.5835 2.33411 16.8377 2.39117C17.9967 2.44395 18.6256 2.63844 19.0453 2.80012C19.6004 3.01525 19.9964 3.27355 20.4128 3.68935C20.8291 4.10515 21.0859 4.50174 21.302 5.05677C21.4652 5.47523 21.6583 6.10539 21.7109 7.26444C21.7686 8.51858 21.7801 8.89396 21.7801 12.0687C21.7801 15.2433 21.7686 15.6187 21.7109 16.8729C21.6582 18.0319 21.4641 18.6619 21.302 19.0805C21.0859 19.6356 20.8286 20.0316 20.4128 20.447C19.997 20.8624 19.6004 21.1202 19.0453 21.3362C18.6269 21.4994 17.9967 21.6925 16.8377 21.7452C15.5846 21.8028 15.2081 21.8143 12.0334 21.8143C8.85875 21.8143 8.48337 21.8028 7.23065 21.7452V21.745ZM7.13221 0.25217C5.86665 0.309804 5.00186 0.510475 4.24663 0.804348C3.46496 1.10783 2.80237 1.51497 2.14072 2.17557C1.47908 2.83617 1.07298 3.49886 0.769499 4.28147C0.475624 5.03718 0.274953 5.90149 0.217319 7.16705C0.158735 8.4346 0.145325 8.83985 0.145325 12.0683C0.145325 15.2967 0.158735 15.7019 0.217319 16.9695C0.274953 18.2352 0.475624 19.0994 0.769499 19.8551C1.07298 20.6367 1.47917 21.3007 2.14072 21.961C2.80227 22.6213 3.46401 23.0279 4.24663 23.3322C5.00329 23.6261 5.86665 23.8267 7.13221 23.8844C8.40044 23.942 8.80501 23.9564 12.0334 23.9564C15.2619 23.9564 15.6671 23.943 16.9347 23.8844C18.2003 23.8267 19.0646 23.6261 19.8203 23.3322C20.6019 23.0279 21.2645 22.6216 21.9262 21.961C22.5878 21.3004 22.9931 20.6367 23.2974 19.8551C23.5913 19.0994 23.7929 18.2351 23.8496 16.9695C23.9072 15.701 23.9206 15.2967 23.9206 12.0683C23.9206 8.83985 23.9072 8.4346 23.8496 7.16705C23.7919 5.90139 23.5913 5.0367 23.2974 4.28147C22.9931 3.49981 22.5868 2.83721 21.9262 2.17557C21.2656 1.51393 20.6019 1.10783 19.8212 0.804348C19.0646 0.510475 18.2002 0.308853 16.9356 0.25217C15.6679 0.194251 15.2628 0.180176 12.0349 0.180176C8.80692 0.180176 8.40091 0.193586 7.13269 0.25217" fill="white"/>
</svg>
