<svg width="22" height="26" viewBox="0 0 22 26" fill="none" xmlns="http://www.w3.org/2000/svg">
<path d="M9.64039 0.590989C5.24926 1.0621 0.875898 4.43988 0.698119 9.27543C0.582563 12.2265 1.81813 14.4399 4.76925 15.0621C5.10703 13.6665 5.16926 12.911 5.16926 12.911C5.16926 12.911 3.87147 11.6665 3.73814 10.8754C2.65369 4.51099 11.4448 0.164323 16.0582 4.60877C19.2405 7.69321 17.1427 17.1777 12.0049 16.191C7.08038 15.2488 14.4138 7.7021 10.4848 6.21766C7.29371 5.00877 5.59593 9.90654 7.10705 12.3332C6.21815 16.511 4.30703 20.4488 5.08037 25.6843C7.59594 23.951 8.44039 20.6265 9.13373 17.1599C10.396 17.8888 11.0715 18.6532 12.6804 18.7688C18.6182 19.2043 21.9338 13.1243 21.1249 7.50654C20.396 2.52877 15.1871 -0.00456613 9.64039 0.590989Z" fill="white"/>
</svg>
